<svg height="100%" width="100%" id="svg" viewBox="0 0 1440 600" xmlns="http://www.w3.org/2000/svg" class="transition duration-300 ease-in-out delay-150"><path d="M 0,600 C 0,600 0,200 0,200 C 92.47846889952152,185.26315789473685 184.95693779904303,170.5263157894737 273,156 C 361.04306220095697,141.4736842105263 444.6507177033493,127.15789473684208 532,133 C 619.3492822966507,138.84210526315792 710.44019138756,164.84210526315792 813,198 C 915.55980861244,231.15789473684208 1029.5885167464114,271.4736842105263 1136,273 C 1242.4114832535886,274.5263157894737 1341.2057416267944,237.26315789473685 1440,200 C 1440,200 1440,600 1440,600 Z" stroke="none" stroke-width="0" fill="#9900ef88" class="transition-all duration-300 ease-in-out delay-150"></path><path d="M 0,600 C 0,600 0,400 0,400 C 120.29665071770336,403.72248803827756 240.59330143540672,407.44497607655506 324,394 C 407.4066985645933,380.55502392344494 453.92344497607667,349.9425837320574 550,336 C 646.0765550239233,322.0574162679426 791.7129186602871,324.78468899521533 891,332 C 990.2870813397129,339.21531100478467 1043.2248803827752,350.9186602870813 1127,363 C 1210.7751196172248,375.0813397129187 1325.3875598086124,387.5406698564593 1440,400 C 1440,400 1440,600 1440,600 Z" stroke="none" stroke-width="0" fill="#9900efff" class="transition-all duration-300 ease-in-out delay-150"></path></svg>