<svg height="100%" width="100%" id="svg" viewBox="0 0 1440 600" xmlns="http://www.w3.org/2000/svg" class="transition duration-300 ease-in-out delay-150"><defs><linearGradient id="gradient"><stop offset="5%" stop-color="#002bdc88"></stop><stop offset="95%" stop-color="#32ded488"></stop></linearGradient></defs><path d="M 0,600 C 0,600 0,200 0,200 C 121.6267942583732,199.7224880382775 243.2535885167464,199.44497607655504 334,186 C 424.7464114832536,172.55502392344496 484.61244019138746,145.94258373205741 558,143 C 631.3875598086125,140.05741626794259 718.2966507177035,160.7846889952153 815,190 C 911.7033492822965,219.2153110047847 1018.200956937799,256.9186602870813 1124,260 C 1229.799043062201,263.0813397129187 1334.8995215311006,231.54066985645935 1440,200 C 1440,200 1440,600 1440,600 Z" stroke="none" stroke-width="0" fill="url(#gradient)" class="transition-all duration-300 ease-in-out delay-150"></path><defs><linearGradient id="gradient"><stop offset="5%" stop-color="#002bdcff"></stop><stop offset="95%" stop-color="#32ded4ff"></stop></linearGradient></defs><path d="M 0,600 C 0,600 0,400 0,400 C 119.98086124401911,382 239.96172248803822,364 335,361 C 430.0382775119618,358 500.13397129186603,370 570,392 C 639.866028708134,414 709.5023923444975,446 814,439 C 918.4976076555025,432 1057.8564593301437,386 1168,373 C 1278.1435406698563,360 1359.0717703349283,380 1440,400 C 1440,400 1440,600 1440,600 Z" stroke="none" stroke-width="0" fill="url(#gradient)" class="transition-all duration-300 ease-in-out delay-150"></path></svg>