<?xml version="1.0" standalone="no"?>
<svg xmlns:xlink="http://www.w3.org/1999/xlink" id="wave" style="transform:rotate(0deg); transition: 0.3s" viewBox="0 0 1440 490" version="1.1" xmlns="http://www.w3.org/2000/svg"><defs><linearGradient id="sw-gradient-0" x1="0" x2="0" y1="1" y2="0"><stop stop-color="rgba(40, 44, 52, 1)" offset="0%"/><stop stop-color="rgba(40, 44, 52, 1)" offset="100%"/></linearGradient></defs><path style="transform:translate(0, 0px); opacity:1" fill="url(#sw-gradient-0)" d="M0,392L40,400.2C80,408,160,425,240,424.7C320,425,400,408,480,351.2C560,294,640,196,720,204.2C800,212,880,327,960,375.7C1040,425,1120,408,1200,383.8C1280,359,1360,327,1440,277.7C1520,229,1600,163,1680,179.7C1760,196,1840,294,1920,343C2000,392,2080,392,2160,326.7C2240,261,2320,131,2400,114.3C2480,98,2560,196,2640,245C2720,294,2800,294,2880,285.8C2960,278,3040,261,3120,261.3C3200,261,3280,278,3360,245C3440,212,3520,131,3600,130.7C3680,131,3760,212,3840,236.8C3920,261,4000,229,4080,245C4160,261,4240,327,4320,302.2C4400,278,4480,163,4560,155.2C4640,147,4720,245,4800,310.3C4880,376,4960,408,5040,416.5C5120,425,5200,408,5280,375.7C5360,343,5440,294,5520,285.8C5600,278,5680,310,5720,326.7L5760,343L5760,490L5720,490C5680,490,5600,490,5520,490C5440,490,5360,490,5280,490C5200,490,5120,490,5040,490C4960,490,4880,490,4800,490C4720,490,4640,490,4560,490C4480,490,4400,490,4320,490C4240,490,4160,490,4080,490C4000,490,3920,490,3840,490C3760,490,3680,490,3600,490C3520,490,3440,490,3360,490C3280,490,3200,490,3120,490C3040,490,2960,490,2880,490C2800,490,2720,490,2640,490C2560,490,2480,490,2400,490C2320,490,2240,490,2160,490C2080,490,2000,490,1920,490C1840,490,1760,490,1680,490C1600,490,1520,490,1440,490C1360,490,1280,490,1200,490C1120,490,1040,490,960,490C880,490,800,490,720,490C640,490,560,490,480,490C400,490,320,490,240,490C160,490,80,490,40,490L0,490Z"/></svg>