<svg width="54" height="53" viewBox="0 0 54 53" fill="none" xmlns="http://www.w3.org/2000/svg">
<path d="M26.3728 15.5404C21.8855 15.5404 18.2485 17.9642 18.2485 20.9566C18.2485 23.949 21.8855 26.3728 26.3728 26.3728M26.3728 15.5404V26.3728M26.3728 15.5404C29.3787 15.5404 32.0056 16.6291 33.4111 18.2485M26.3728 15.5404V12.8323M26.3728 26.3728C30.8601 26.3728 34.497 28.7965 34.497 31.7889C34.497 34.7814 30.8601 37.2051 26.3728 37.2051M26.3728 26.3728V37.2051M26.3728 37.2051V39.9132M26.3728 37.2051C23.3668 37.2051 20.7399 36.1164 19.3344 34.497M50.7455 26.3728C50.7455 19.9087 48.1777 13.7094 43.6069 9.13862C39.0361 4.56784 32.8368 2 26.3728 2C19.9087 2 13.7094 4.56784 9.13861 9.13862C4.56784 13.7094 2 19.9087 2 26.3728C2 29.5734 2.63042 32.7428 3.85527 35.6998C5.08011 38.6568 6.87539 41.3437 9.13861 43.6069C11.4018 45.8701 14.0887 47.6654 17.0457 48.8902C20.0027 50.1151 23.1721 50.7455 26.3728 50.7455C29.5734 50.7455 32.7428 50.1151 35.6998 48.8902" stroke="#9830ff" stroke-width="4" stroke-linecap="round" stroke-linejoin="round"/>
<path d="M52.25 44.4265L46.2321 50.4445M46.2321 50.4445L40.2141 44.4265M46.2321 50.4445V31.187" stroke="#9830ff" stroke-width="3.5" stroke-linecap="round" stroke-linejoin="round"/>
</svg>
