<svg width="63" height="63" viewBox="0 0 63 63" fill="none" xmlns="http://www.w3.org/2000/svg">
<path d="M42.2001 21.9001L30.5001 17.6001L19.1001 21.9001V33.1001C19.1001 36.8001 20.6001 40.3001 23.3001 42.8001L23.4001 42.9001C24.1001 43.6001 24.9001 44.1001 25.8001 44.5001C27.3001 45.2001 29.9001 46.6001 30.4001 47.4001C30.9001 46.6001 33.1001 45.5001 34.6001 44.7001C36.7001 43.7001 38.5001 42.2001 39.9001 40.4001C40.0001 40.3001 40.1001 40.2001 40.1001 40.1001C41.4001 38.3001 42.0001 36.1001 42.0001 33.9001L42.2001 21.9001Z" fill="#9830ff"/>
<path d="M30.7 13.3L16 18.9V32.8C16 38.4 18.4 43.7001 22.8 47.2001C22.8 47.2001 23.3 47.6001 23.5 47.7001C23.5 47.7001 29.7 50.5 30.7 52.1C31.7 50.7 36.8 48.3 38 47.8C38.2 47.7 38.3 47.6 38.5 47.5C38.7 47.4 39 47.2 39.1 47.1C43.6 43.6 45.9 38.4001 45.9 32.7001V18.9L30.7 13.3Z" stroke="#9830ff" stroke-width="3" stroke-miterlimit="10" stroke-linecap="round" stroke-linejoin="round"/>
<path d="M31.1 59.7C46.8953 59.7 59.7 46.8953 59.7 31.1C59.7 15.3047 46.8953 2.5 31.1 2.5C15.3047 2.5 2.5 15.3047 2.5 31.1C2.5 46.8953 15.3047 59.7 31.1 59.7Z" stroke="#9830ff" stroke-width="4" stroke-miterlimit="10" stroke-linecap="round" stroke-linejoin="round"/>
</svg>
