<svg width="69" height="57" viewBox="0 0 69 57" fill="none" xmlns="http://www.w3.org/2000/svg">
<g clip-path="url(#clip0)">
<path d="M18.4376 57C16.9884 56.6842 15.9417 55.8157 14.9755 54.7894C14.3314 54.1578 13.6873 53.5263 13.0432 52.8947C12.3991 52.2631 12.3991 51.4736 12.9627 50.921C13.5263 50.3684 14.3314 50.3684 14.9755 51C15.8612 51.8684 16.8274 52.8157 17.713 53.6842C18.6792 54.6315 19.6453 54.6315 20.692 53.6842C21.3361 53.0526 21.9802 52.421 22.6243 51.7894C23.671 50.7631 23.671 49.8947 22.6243 48.8684C20.2089 46.4999 17.7935 44.0526 15.3781 41.6842C13.2848 39.5526 11.1109 37.4999 8.93704 35.3684C8.61499 35.0526 8.29293 34.7368 7.89037 34.4999C7.32677 34.1052 6.36061 34.1052 5.79702 34.6578C4.91137 35.3684 4.02572 36.2368 3.22059 37.1052C2.49597 37.8157 2.657 38.8421 3.38162 39.6315C4.34778 40.5789 5.31394 41.5263 6.2801 42.4736C6.68267 42.8684 6.84369 43.421 6.60215 43.9736C6.36061 44.5263 5.87753 44.8421 5.31394 44.7631C4.99188 44.6842 4.58932 44.5263 4.34778 44.2894C3.3011 43.342 2.25443 42.3157 1.28827 41.2894C-0.322001 39.5526 -0.322001 37.0263 1.28827 35.2894C2.17392 34.421 3.05956 33.4736 3.94521 32.6842C5.23343 31.4999 6.76318 31.2631 8.45396 31.7368C8.6955 31.8157 9.01756 31.8157 9.17858 31.6578C10.6278 30.3157 11.9966 28.8947 13.4458 27.4736C10.7083 24.7105 11.8355 20.8421 15.0561 19.5789C13.2848 16.6578 14.734 13.342 18.0351 12.3947C17.713 11.1315 17.874 9.94731 18.5181 8.7631C19.2428 7.65784 20.2089 6.94731 21.4166 6.63152C21.4166 5.7631 21.3361 4.97363 21.5776 4.18415C22.1412 1.65784 24.6372 0.236785 27.2941 0.789416C27.5356 0.868364 27.9382 0.789416 28.0992 0.631522C29.3069 -0.157952 30.5952 -0.0790048 31.8834 0.157837C34.7818 0.710469 37.7608 1.2631 40.6593 1.73679C41.2229 1.81573 41.7865 1.81573 42.3501 1.89468C45.0876 2.36836 46.6978 4.65784 46.2953 7.2631C46.2953 7.421 46.2953 7.49994 46.2148 7.73679C47.503 8.05258 48.5496 8.7631 49.1938 9.86836C49.9184 10.9736 49.9989 12.2368 49.7573 13.4999C52.6558 14.4473 53.8635 16.4999 53.3805 19.421C55.1517 19.8947 56.44 20.9999 56.923 22.8157C57.4061 24.5526 56.8425 26.1315 55.4738 27.4736C56.601 28.5789 57.7282 29.6842 58.7748 30.7105C58.8554 30.7894 59.0164 30.9473 59.0969 31.0263C59.58 31.6578 60.0631 31.8157 60.9487 31.5789C62.4785 31.0263 63.9277 31.421 65.1354 32.5263C66.1016 33.3947 66.9872 34.2631 67.8729 35.2105C69.4831 36.9473 69.4831 39.5526 67.7924 41.2894C62.881 46.0263 57.9697 50.8421 52.9779 55.6578C51.2066 57.3947 48.4691 57.3157 46.6173 55.5789C45.8122 54.7894 45.0071 54 44.2019 53.2105C42.8332 51.7894 42.5111 50.1315 43.2358 48.3157C43.3968 47.921 43.3163 47.7631 43.0747 47.5263C41.4645 45.9473 39.8542 44.3684 38.1634 42.7894C38.0024 42.6315 37.7608 42.4736 37.5193 42.4736C36.0701 42.3947 34.6208 42.3947 33.1716 42.3947C32.6885 42.3947 32.1249 42.3157 31.7223 42.3947C31.2393 42.4736 30.6757 42.7105 30.2731 43.0263C28.7433 44.4473 27.2941 45.9473 25.7643 47.3684C25.5228 47.6052 25.4423 47.8421 25.6033 48.2368C26.489 49.9736 26.1669 51.8684 24.7982 53.2894C23.993 54.0789 23.2684 54.9473 22.3828 55.6578C21.6582 56.2105 20.7725 56.5263 19.9674 57C19.4038 57 18.9207 57 18.4376 57ZM11.1914 33.4736C15.3781 37.5789 19.5648 41.6842 23.671 45.7894C25.2008 44.2894 26.811 42.7105 28.4213 41.1315C29.3069 40.2631 30.2731 39.7894 31.4808 39.7894C32.769 39.7894 33.9767 39.7105 35.2649 39.8684C37.4388 40.0263 39.4516 39.7894 40.9009 37.8947C41.4645 37.1842 42.3501 37.1842 42.9137 37.7368C43.4773 38.2894 43.3968 39.0789 42.8332 39.7105C42.2696 40.3421 41.706 41.0526 41.2229 41.6052C42.5111 42.8684 43.9604 44.2894 45.3291 45.7105C49.4353 41.6842 53.622 37.5789 57.6477 33.6315C56.2789 32.2894 54.8297 30.8684 53.3805 29.3684C53.1389 29.6052 52.8169 29.921 52.4143 30.2368C51.7702 30.7105 50.8845 30.6315 50.482 29.9999C50.0794 29.4473 50.1599 28.7368 50.7235 28.1842C51.6897 27.1578 52.7363 26.2105 53.7025 25.1842C54.4271 24.3947 54.4271 23.2105 53.7025 22.4999C52.9779 21.7894 51.7702 21.7105 50.965 22.421C50.5625 22.7368 50.2404 23.1315 49.8379 23.4473C49.1132 24.1578 48.3081 24.1578 47.7445 23.6052C47.1809 23.0526 47.2614 22.2631 47.9055 21.5526C48.6302 20.8421 49.4353 20.1315 50.1599 19.3421C50.8845 18.5526 50.8845 17.3684 50.1599 16.6578C49.3548 15.8684 48.2276 15.8684 47.3419 16.5789C46.9394 16.9736 46.5368 17.3684 46.1342 17.7631C45.4096 18.4736 44.6045 18.5526 43.9604 17.921C43.3968 17.3684 43.4773 16.5789 44.1214 15.8684C44.9265 15.0789 45.7317 14.2894 46.5368 13.4999C47.3419 12.7105 47.2614 11.5263 46.4563 10.7368C45.6512 10.0263 44.524 10.0263 43.7188 10.7368C43.3163 11.1315 42.9137 11.5263 42.4306 11.921C41.7865 12.5526 40.9814 12.6315 40.4178 12.0789C39.8542 11.5263 39.8542 10.7368 40.5788 10.0263C41.384 9.23678 42.1086 8.52626 42.9137 7.73679C43.3968 7.2631 43.6383 6.71047 43.5578 6.07889C43.4773 5.28942 42.9942 4.73679 42.2696 4.49994C41.4645 4.18415 40.7398 4.34205 40.1763 4.97363C39.0491 6.07889 37.9219 7.2631 36.7142 8.36836C36.3921 8.68415 36.3116 8.921 36.5531 9.31573C37.7608 11.842 36.3921 14.7631 33.7352 15.6315C33.2521 15.7894 32.769 15.8684 32.2859 15.9473C32.2859 16.0263 32.2054 16.1842 32.2054 16.3421C31.8029 18.7894 30.4341 20.2105 27.9382 20.5263C27.5356 20.6052 27.4551 20.7631 27.4551 21.0789C27.2136 23.2894 25.6033 24.8684 23.3489 25.1842C23.1879 25.1842 22.9464 25.2631 22.7853 25.2631C22.7048 25.8157 22.6243 26.2105 22.4633 26.6842C21.5776 29.2894 18.5987 30.5526 16.0222 29.4473C15.7807 29.3684 15.4586 29.2894 15.2976 29.4473C13.8484 30.7894 12.4796 32.2105 11.1914 33.4736ZM66.4236 38.1315C66.1016 37.6578 65.9405 37.1842 65.6185 36.7894C64.8939 35.9999 64.1693 35.3684 63.4446 34.6578C62.559 33.7894 61.5123 33.7894 60.6267 34.6578C55.8764 39.3157 51.0456 44.0526 46.2953 48.7105C45.4096 49.5789 45.4096 50.6052 46.2953 51.4736C47.0199 52.1842 47.7445 52.8947 48.4691 53.6052C49.3548 54.4736 50.3209 54.4736 51.2066 53.6052C56.0374 48.8684 60.8682 44.2105 65.6185 39.4736C66.0211 39.1578 66.1821 38.6052 66.4236 38.1315ZM27.1331 17.921C28.2603 17.8421 28.9044 17.5263 29.2264 16.7368C29.5485 15.9473 29.3875 15.2368 28.8239 14.6052C27.2136 13.0263 25.5228 11.3684 23.9125 9.78942C23.0269 8.99994 21.8192 8.99994 21.0946 9.78942C20.2894 10.5789 20.2894 11.7631 21.1751 12.5526C22.7853 14.1315 24.3956 15.7105 26.0059 17.2894C26.3279 17.6052 26.8915 17.8421 27.1331 17.921ZM32.1249 13.421C33.3326 13.342 34.2183 12.4736 34.2183 11.3684C34.2183 10.7368 33.9767 10.342 33.3326 10.1052C30.5146 8.921 28.5018 6.94731 27.2941 4.18415C27.2136 3.94731 26.8915 3.63152 26.65 3.55257C25.7643 3.23679 24.8787 3.63152 24.3956 4.34205C23.9125 5.13152 23.9931 6.07889 24.7177 6.78942C26.7305 8.7631 28.7433 10.8157 30.8367 12.7894C31.1587 13.0263 31.6418 13.1842 32.1249 13.421ZM24.7177 20.6052C24.5566 20.2105 24.4761 19.7368 24.2346 19.4999C22.8659 18.1578 21.5776 16.7368 20.1284 15.4736C19.4038 14.8421 18.2766 14.921 17.552 15.6315C16.8274 16.342 16.6663 17.4473 17.3104 18.1578C18.6792 19.5789 20.0479 20.921 21.4971 22.2631C22.0607 22.8157 22.8659 22.7368 23.5905 22.421C24.3151 22.0263 24.6372 21.3947 24.7177 20.6052ZM19.8869 25.1842C19.8064 25.0263 19.8064 24.6315 19.6453 24.4736C18.9207 23.6842 18.2766 22.8947 17.391 22.3421C16.6663 21.7894 15.5391 22.1052 14.9755 22.8157C14.412 23.5263 14.3314 24.5526 14.895 25.2631C15.4586 25.8947 16.0222 26.4473 16.6663 26.9999C17.3104 27.4736 18.0351 27.5526 18.7597 27.1578C19.5648 26.6842 19.8869 26.0526 19.8869 25.1842ZM29.8705 2.60521C29.8705 2.68415 29.79 2.7631 29.79 2.84205C30.5146 4.89468 32.0444 6.23678 33.8157 7.2631C35.0234 6.07889 36.1506 4.97363 37.3583 3.78942C34.8624 3.47363 32.3664 2.99994 29.8705 2.60521Z" fill="#9830ff"/>
</g>
<defs>
<clipPath id="clip0">
<rect width="69" height="57" fill="white"/>
</clipPath>
</defs>
</svg>
