<svg width="58" height="58" viewBox="0 0 58 58" fill="none" xmlns="http://www.w3.org/2000/svg">
<path d="M26.1213 26.3562C26.6839 25.8639 27 25.1962 27 24.5C27 23.8038 26.6839 23.1361 26.1213 22.6438C25.5587 22.1516 24.7956 21.875 24 21.875C23.2044 21.875 22.4413 22.1516 21.8787 22.6438C21.3161 23.1361 21 23.8038 21 24.5C21 25.1962 21.3161 25.8639 21.8787 26.3562C22.4413 26.8484 23.2044 27.125 24 27.125C24.7956 27.125 25.5587 26.8484 26.1213 26.3562Z" stroke="#9830ff" stroke-width="2" stroke-linecap="round" stroke-linejoin="round"/>
<path d="M14.458 24.5C15.732 20.9501 19.523 18.375 24 18.375C28.478 18.375 32.268 20.9501 33.542 24.5C32.268 28.0499 28.478 30.625 24 30.625C19.523 30.625 15.732 28.0499 14.458 24.5Z" stroke="#9830ff" stroke-width="2" stroke-linecap="round" stroke-linejoin="round"/>
<path d="M50.75 50.75L36.25 36.25M41.0833 24.1667C41.0833 26.3882 40.6458 28.588 39.7956 30.6404C38.9455 32.6928 37.6994 34.5577 36.1286 36.1286C34.5577 37.6994 32.6928 38.9455 30.6404 39.7956C28.588 40.6458 26.3882 41.0833 24.1667 41.0833C21.9451 41.0833 19.7454 40.6458 17.6929 39.7956C15.6405 38.9455 13.7756 37.6994 12.2048 36.1286C10.6339 34.5577 9.38785 32.6928 8.5377 30.6404C7.68756 28.588 7.25 26.3882 7.25 24.1667C7.25 19.6801 9.03229 15.3773 12.2048 12.2048C15.3773 9.03229 19.6801 7.25 24.1667 7.25C28.6532 7.25 32.9561 9.03229 36.1286 12.2048C39.301 15.3773 41.0833 19.6801 41.0833 24.1667Z" stroke="#9830ff" stroke-width="4" stroke-linecap="round" stroke-linejoin="round"/>
</svg>
