<svg width="55" height="58" viewBox="0 0 55 58" fill="none" xmlns="http://www.w3.org/2000/svg">
<path d="M35.2886 36.0757C31.6316 32.6479 26.6717 30.7222 21.5 30.7222C16.3283 30.7222 11.3684 32.6479 7.71142 36.0757C4.05446 39.5034 2 44.1524 2 49H26M32.6429 12.4444C32.6429 15.2145 31.4689 17.8711 29.3792 19.8298C27.2895 21.7885 24.4553 22.8889 21.5 22.8889C18.5447 22.8889 15.7105 21.7885 13.6208 19.8298C11.5311 17.8711 10.3571 15.2145 10.3571 12.4444C10.3571 9.67441 11.5311 7.01782 13.6208 5.05911C15.7105 3.10039 18.5447 2 21.5 2C24.4553 2 27.2895 3.10039 29.3792 5.05911C31.4689 7.01782 32.6429 9.67441 32.6429 12.4444Z" stroke="#9830ff" stroke-width="4" stroke-linecap="round" stroke-linejoin="round"/>
<path d="M31.25 44.25L36.25 49.25L48.75 36.75" stroke="#9830ff" stroke-width="4" stroke-linecap="round" stroke-linejoin="round"/>
</svg>
