<?xml version="1.0" standalone="no"?>
<svg xmlns:xlink="http://www.w3.org/1999/xlink" id="wave" style="transform:rotate(0deg); transition: 0.3s" viewBox="0 0 1440 380" version="1.1" xmlns="http://www.w3.org/2000/svg"><defs><linearGradient id="sw-gradient-0" x1="0" x2="0" y1="1" y2="0"><stop stop-color="rgba(152, 48, 255, 1)" offset="0%"/><stop stop-color="rgba(12, 235, 252, 1)" offset="100%"/></linearGradient></defs><path style="transform:translate(0, 0px); opacity:1" fill="url(#sw-gradient-0)" d="M0,228L80,247C160,266,320,304,480,323C640,342,800,342,960,297.7C1120,253,1280,165,1440,133C1600,101,1760,127,1920,120.3C2080,114,2240,76,2400,95C2560,114,2720,190,2880,228C3040,266,3200,266,3360,234.3C3520,203,3680,139,3840,120.3C4000,101,4160,127,4320,126.7C4480,127,4640,101,4800,114C4960,127,5120,177,5280,215.3C5440,253,5600,279,5760,291.3C5920,304,6080,304,6240,291.3C6400,279,6560,253,6720,202.7C6880,152,7040,76,7200,82.3C7360,89,7520,177,7680,177.3C7840,177,8000,89,8160,95C8320,101,8480,203,8640,221.7C8800,241,8960,177,9120,164.7C9280,152,9440,190,9600,209C9760,228,9920,228,10080,209C10240,190,10400,152,10560,145.7C10720,139,10880,165,11040,202.7C11200,241,11360,291,11440,316.7L11520,342L11520,380L11440,380C11360,380,11200,380,11040,380C10880,380,10720,380,10560,380C10400,380,10240,380,10080,380C9920,380,9760,380,9600,380C9440,380,9280,380,9120,380C8960,380,8800,380,8640,380C8480,380,8320,380,8160,380C8000,380,7840,380,7680,380C7520,380,7360,380,7200,380C7040,380,6880,380,6720,380C6560,380,6400,380,6240,380C6080,380,5920,380,5760,380C5600,380,5440,380,5280,380C5120,380,4960,380,4800,380C4640,380,4480,380,4320,380C4160,380,4000,380,3840,380C3680,380,3520,380,3360,380C3200,380,3040,380,2880,380C2720,380,2560,380,2400,380C2240,380,2080,380,1920,380C1760,380,1600,380,1440,380C1280,380,1120,380,960,380C800,380,640,380,480,380C320,380,160,380,80,380L0,380Z"/></svg>